<?xml version="1.0" encoding="UTF-8"?>
<svg width="32" height="32" version="1.1" viewBox="0 0 32 32" xmlns="http://www.w3.org/2000/svg">
 <g transform="matrix(.356 0 0 .356 -1.78 -340)" fill="#fff" stroke-width="2.81">
  <path transform="translate(0 952)" d="m44 5c-5.49 0-10 4.51-10 10 0 6.82 3.79 15.3 7.78 23.2-3.12 9.77-6.66 20.2-11.2 29.1-9.27 3.64-17.5 6.34-22.5 10.3a3 3 0 0 0-0.219 0.25c-1.82 1.86-2.88 4.38-2.88 7.09 0 5.49 4.51 10 10 10 2.68 0 5.26-0.999 7.12-2.91a3 3 0 0 0 0.188-0.156c3.66-4.37 7.97-12.3 11.8-19.5 8.86-3.48 18.1-7.03 27.1-9.16 6.54 5.27 16 8.75 23.8 8.75 5.49 0 10-4.51 10-10s-4.51-10-10-10c-6.24 0-15.3 2.23-22.2 4.56-5.62-5.28-10.8-11.9-14.5-18.9 2.65-8.17 5.75-16.3 5.75-22.7 0-5.49-4.51-10-10-10zm0 6c2.24 0 4 1.76 4 4 0 3-1.61 8.53-3.47 14.5-2.49-5.78-4.53-11.3-4.53-14.5 0-2.24 1.76-4 4-4zm1.72 34.2c3.01 4.78 6.53 9.24 10.4 13.2-5.93 1.62-11.7 3.7-17.4 5.88 2.76-6.23 4.97-12.7 7.06-19.1zm39.3 12.8c2.24 0 4 1.76 4 4s-1.76 4-4 4c-4.51 0-10.9-2.03-16-4.88 5.88-1.66 12.3-3.12 16-3.12zm-59.7 17.9c-2.81 5.02-5.61 9.7-7.56 12.1-0.668 0.639-1.56 1.03-2.75 1.03-2.24 0-4-1.76-4-4 0-1.06 0.449-2.11 1.06-2.78 2.35-1.82 7.45-3.99 13.2-6.31z" color="#000000" fill="#fff" style="text-decoration-line:none;text-indent:0;text-transform:none"/>
 </g>
</svg>
