<?xml version="1.0" encoding="UTF-8"?>
<svg width="32" height="32" version="1.1" viewBox="0 0 32 32" xmlns="http://www.w3.org/2000/svg">
 <path class="cls-5" d="m25.1 4.25c-1.54-2.32-4.37-2.78-6.84-1.69-2.46 1.09-3.77 3.39-4.17 5.96a18.1 18.1 0 0 0-0.176 3.49 6.03 6.03 0 0 1-1.17-0.0847 16.6 16.6 0 0 1-4.3-1.14 18.7 18.7 0 0 1-2.05-1.01c-0.325-0.195-0.651-0.389-0.969-0.599-0.124-0.0779-0.925-0.515-0.925-0.651a14.9 14.9 0 0 0-0.532 3.59 19.9 19.9 0 0 0 6.95 2.81 21.7 21.7 0 0 0 3.25 0.377c0.0912 0.755 0.195 1.48 0.293 2.15a59.6 59.6 0 0 0 2.24 9.65 14.6 14.6 0 0 0 2 0.143 14 14 0 0 0 1.52-0.078 58.9 58.9 0 0 1-1.95-7.05c-0.352-1.71-0.61-3.32-0.799-4.98 3-0.403 5.87-1.61 7.48-4.13a6.44 6.44 0 0 0 0.149-6.74zm-2.43 3.63a3.52 3.52 0 0 1-0.851 1.84 4.91 4.91 0 0 1-1.12 0.911 10.3 10.3 0 0 1-3.59 1.26s-0.227-2.67 0.651-4.37c0.61-1.26 2.36-2.82 3.86-2.1a1.74 1.74 0 0 1 0.813 0.779 2.51 2.51 0 0 1 0.3 1.25 3.49 3.49 0 0 1-0.0325 0.43z" fill="#fff" style="isolation:isolate"/>
</svg>
